<svg width="130" height="135" viewBox="0 0 130 135" fill="none" xmlns="http://www.w3.org/2000/svg">
<path d="M119.013 60.5706C113.097 54.2318 98.5878 64.9373 98.5878 64.9373C98.5878 64.9373 80.6983 77.8966 78.1628 78.3192C75.6273 78.7418 64.64 70.5718 60.4142 54.2318C56.1883 37.8918 65.4852 15.6356 65.3443 14.3679C65.2035 13.1001 62.3862 3.38065 54.2162 9.57857C46.0462 15.7765 41.8204 31.2713 41.2569 44.0898C40.6935 56.9082 46.4688 69.4449 46.4688 69.4449C46.4688 69.4449 48.4409 72.8256 45.6237 74.6568C42.9473 76.488 40.4117 69.8675 40.4117 69.8675C40.4117 69.8675 35.9042 57.8942 35.7633 51.2737C35.6224 44.6532 36.3267 35.0746 36.3267 35.0746C36.3267 35.0746 23.9309 44.3715 22.804 57.6125C21.6771 70.8535 27.4524 77.7558 27.4524 77.7558C27.4524 77.7558 30.2697 81.4182 27.5933 83.5311C24.9169 85.6441 22.2405 80.1504 22.2405 80.1504C22.2405 80.1504 16.6061 70.2901 17.0287 61.4158C17.4512 52.5415 20.9728 44.6532 20.9728 44.6532C20.9728 44.6532 10.4081 50.7103 8.85865 63.6696C7.30917 76.6289 11.3942 82.686 11.3942 82.686C11.3942 82.686 14.2114 88.1796 10.9716 89.0247C7.73176 89.8699 6.32313 85.2215 6.32313 85.2215C6.32313 85.2215 4.63278 80.7139 3.78761 76.6289C3.0833 73.2482 2.94245 70.2901 2.94245 70.2901C2.94245 70.2901 -3.67806 81.8408 2.94245 99.3077C9.56297 116.775 21.818 130.438 43.6516 133.819C65.4852 137.2 84.5016 124.663 93.3759 113.253C102.25 101.843 101.687 88.4613 109.152 79.8687C116.9 71.1353 125.07 66.9094 119.013 60.5706Z" fill="white"/>
<path d="M85.065 54.091C84.7833 52.5415 80.1348 44.2307 75.4864 39.1596C70.5562 33.9477 65.7669 32.1165 65.7669 32.1165C65.7669 32.1165 65.2035 35.3563 65.0626 39.0187C64.9217 43.2446 65.0626 47.8931 65.0626 47.8931C65.0626 47.8931 71.824 60.7115 77.881 61.4158C83.9381 62.261 85.7693 57.4717 85.065 54.091Z" fill="white"/>
<path d="M81.6843 0H81.5435C79.7123 0 78.3036 1.40862 78.3036 3.23983V15.7765C78.3036 17.6077 79.7123 19.0164 81.5435 19.0164H81.6843C83.5155 19.0164 84.9241 17.6077 84.9241 15.7765V3.23983C84.9241 1.54949 83.5155 0 81.6843 0Z" fill="white"/>
<path d="M115.35 13.8045L115.209 13.6636C113.942 12.3958 111.97 12.5367 110.702 13.8045L102.109 22.9605C100.842 24.2282 100.982 26.2003 102.25 27.4681L102.391 27.6089C103.659 28.8767 105.631 28.7358 106.899 27.4681L115.491 18.312C116.759 17.0443 116.618 14.9314 115.35 13.8045Z" fill="white"/>
<path d="M130 46.6254C130 44.7942 128.591 43.3856 126.76 43.3856H114.223C112.392 43.3856 110.984 44.7942 110.984 46.6254V46.7662C110.984 48.5974 112.392 50.0061 114.223 50.0061H126.76C128.591 50.0061 130 48.5974 130 46.7662V46.6254Z" fill="white"/>
</svg>
