<svg width="244" height="59" viewBox="0 0 244 59" fill="none" xmlns="http://www.w3.org/2000/svg">
<path d="M5.16 58.64C1.85333 58.64 0.2 56.9333 0.2 53.52V6C0.2 2.64 1.85333 0.959995 5.16 0.959995C8.52 0.959995 10.2 2.64 10.2 6V35.52H10.36L23.56 21.6C24.6267 20.5333 25.56 19.7067 26.36 19.12C27.16 18.5333 28.2533 18.24 29.64 18.24C31.0267 18.24 32.0667 18.6133 32.76 19.36C33.5067 20.0533 33.88 20.9067 33.88 21.92C33.88 22.9333 33.4 23.9467 32.44 24.96L20.44 37.6L33.8 52C34.76 53.0133 35.1867 54.0533 35.08 55.12C35.0267 56.1333 34.6 56.9867 33.8 57.68C33 58.32 31.9867 58.64 30.76 58.64C29.2667 58.64 28.0667 58.3467 27.16 57.76C26.3067 57.1733 25.3467 56.2933 24.28 55.12L10.36 40.56H10.2V53.52C10.2 56.9333 8.52 58.64 5.16 58.64ZM60.1494 58.8C56.096 58.8 52.576 57.9733 49.5894 56.32C46.6027 54.6667 44.2827 52.32 42.6294 49.28C40.976 46.1867 40.1494 42.56 40.1494 38.4C40.1494 34.24 40.976 30.64 42.6294 27.6C44.2827 24.56 46.6027 22.2133 49.5894 20.56C52.576 18.9067 56.096 18.08 60.1494 18.08C64.2027 18.08 67.7227 18.9067 70.7094 20.56C73.696 22.2133 76.016 24.56 77.6694 27.6C79.3227 30.64 80.1494 34.24 80.1494 38.4C80.1494 42.56 79.3227 46.1867 77.6694 49.28C76.016 52.32 73.696 54.6667 70.7094 56.32C67.7227 57.9733 64.2027 58.8 60.1494 58.8ZM60.1494 51.2C63.136 51.2 65.536 50.1333 67.3494 48C69.1627 45.8133 70.0694 42.6133 70.0694 38.4C70.0694 34.1333 69.1627 30.96 67.3494 28.88C65.536 26.7467 63.136 25.68 60.1494 25.68C57.1627 25.68 54.7627 26.7467 52.9494 28.88C51.136 30.96 50.2294 34.1333 50.2294 38.4C50.2294 42.6133 51.136 45.8133 52.9494 48C54.7627 50.1333 57.1627 51.2 60.1494 51.2ZM102.723 58.8C100.43 58.8 98.0031 58.56 95.4431 58.08C92.8831 57.6 90.5898 56.7733 88.5631 55.6C87.4431 54.96 86.7498 54.1867 86.4831 53.28C86.2165 52.32 86.2431 51.44 86.5631 50.64C86.9365 49.7867 87.5231 49.1733 88.3231 48.8C89.1765 48.4267 90.1631 48.5067 91.2831 49.04C93.4165 50.0533 95.4165 50.7733 97.2831 51.2C99.1498 51.5733 100.99 51.76 102.803 51.76C105.363 51.76 107.256 51.3333 108.483 50.48C109.763 49.5733 110.403 48.4 110.403 46.96C110.403 44.72 108.75 43.28 105.443 42.64L97.4431 41.12C90.6698 39.84 87.2831 36.32 87.2831 30.56C87.2831 28 87.9765 25.7867 89.3631 23.92C90.8031 22.0533 92.7765 20.6133 95.2831 19.6C97.7898 18.5867 100.67 18.08 103.923 18.08C108.616 18.08 112.803 19.12 116.483 21.2C117.496 21.7333 118.083 22.48 118.243 23.44C118.456 24.3467 118.35 25.2267 117.923 26.08C117.55 26.88 116.936 27.4667 116.083 27.84C115.23 28.16 114.243 28.0533 113.123 27.52C111.47 26.6667 109.87 26.0533 108.323 25.68C106.83 25.3067 105.39 25.12 104.003 25.12C101.39 25.12 99.4431 25.5733 98.1631 26.48C96.9365 27.3867 96.3231 28.5867 96.3231 30.08C96.3231 32.4267 97.8431 33.8667 100.883 34.4L108.883 35.92C112.35 36.56 114.963 37.7333 116.723 39.44C118.536 41.1467 119.443 43.44 119.443 46.32C119.443 50.2133 117.923 53.28 114.883 55.52C111.843 57.7067 107.79 58.8 102.723 58.8ZM132.426 58.64C129.119 58.64 127.466 56.9333 127.466 53.52V6C127.466 2.64 129.119 0.959995 132.426 0.959995C135.786 0.959995 137.466 2.64 137.466 6V24.56C138.799 22.4267 140.586 20.8267 142.826 19.76C145.066 18.64 147.546 18.08 150.266 18.08C159.492 18.08 164.106 23.44 164.106 34.16V53.52C164.106 56.9333 162.452 58.64 159.146 58.64C155.786 58.64 154.106 56.9333 154.106 53.52V34.64C154.106 31.6 153.519 29.3867 152.346 28C151.226 26.6133 149.466 25.92 147.066 25.92C144.132 25.92 141.786 26.8533 140.026 28.72C138.319 30.5333 137.466 32.96 137.466 36V53.52C137.466 56.9333 135.786 58.64 132.426 58.64ZM193.543 58.8C189.116 58.8 185.303 57.9733 182.103 56.32C178.903 54.6667 176.423 52.32 174.663 49.28C172.956 46.24 172.103 42.64 172.103 38.48C172.103 34.4267 172.929 30.88 174.583 27.84C176.289 24.8 178.609 22.4267 181.543 20.72C184.529 18.96 187.916 18.08 191.703 18.08C197.249 18.08 201.623 19.84 204.823 23.36C208.076 26.88 209.703 31.68 209.703 37.76C209.703 39.7333 208.423 40.72 205.863 40.72H181.703C182.449 47.7067 186.449 51.2 193.703 51.2C195.089 51.2 196.636 51.04 198.343 50.72C200.103 50.3467 201.756 49.7333 203.303 48.88C204.689 48.08 205.863 47.84 206.823 48.16C207.783 48.4267 208.449 48.9867 208.823 49.84C209.249 50.6933 209.303 51.6533 208.983 52.72C208.716 53.7333 207.969 54.6133 206.743 55.36C204.876 56.5333 202.716 57.4133 200.263 58C197.863 58.5333 195.623 58.8 193.543 58.8ZM192.103 24.88C189.169 24.88 186.796 25.7867 184.983 27.6C183.169 29.4133 182.076 31.8667 181.703 34.96H201.383C201.169 31.7067 200.263 29.2267 198.663 27.52C197.116 25.76 194.929 24.88 192.103 24.88ZM222.742 58.64C219.329 58.64 217.622 56.9333 217.622 53.52V23.28C217.622 19.92 219.249 18.24 222.502 18.24C225.755 18.24 227.382 19.92 227.382 23.28V25.76C229.302 21.1733 233.409 18.6133 239.702 18.08C241.995 17.8133 243.275 19.12 243.542 22C243.809 24.8267 242.422 26.4 239.382 26.72L237.622 26.88C231.062 27.52 227.782 30.88 227.782 36.96V53.52C227.782 56.9333 226.102 58.64 222.742 58.64Z" fill="white"/>
</svg>
