<svg width="172" height="56" viewBox="0 0 172 56" fill="none" xmlns="http://www.w3.org/2000/svg">
<path opacity="0.7" d="M16.52 40.8C14.2267 40.8 11.8 40.56 9.24 40.08C6.68 39.6 4.38667 38.7733 2.36 37.6C1.24 36.96 0.546667 36.1867 0.28 35.28C0.0133335 34.32 0.0400002 33.44 0.36 32.64C0.733334 31.7867 1.32 31.1733 2.12 30.8C2.97333 30.4267 3.96 30.5067 5.08 31.04C7.21333 32.0533 9.21333 32.7733 11.08 33.2C12.9467 33.5733 14.7867 33.76 16.6 33.76C19.16 33.76 21.0533 33.3333 22.28 32.48C23.56 31.5733 24.2 30.4 24.2 28.96C24.2 26.72 22.5467 25.28 19.24 24.64L11.24 23.12C4.46667 21.84 1.08 18.32 1.08 12.56C1.08 10 1.77333 7.78666 3.16 5.92C4.6 4.05333 6.57333 2.61333 9.08 1.6C11.5867 0.586665 14.4667 0.079999 17.72 0.079999C22.4133 0.079999 26.6 1.12 30.28 3.2C31.2933 3.73333 31.88 4.48 32.04 5.44C32.2533 6.34667 32.1467 7.22667 31.72 8.08C31.3467 8.88 30.7333 9.46667 29.88 9.84C29.0267 10.16 28.04 10.0533 26.92 9.52C25.2667 8.66667 23.6667 8.05333 22.12 7.68C20.6267 7.30667 19.1867 7.12 17.8 7.12C15.1867 7.12 13.24 7.57333 11.96 8.48C10.7333 9.38667 10.12 10.5867 10.12 12.08C10.12 14.4267 11.64 15.8667 14.68 16.4L22.68 17.92C26.1467 18.56 28.76 19.7333 30.52 21.44C32.3333 23.1467 33.24 25.44 33.24 28.32C33.24 32.2133 31.72 35.28 28.68 37.52C25.64 39.7067 21.5867 40.8 16.52 40.8ZM46.2225 40.64C42.9158 40.64 41.2625 38.9333 41.2625 35.52V5.28C41.2625 1.92 42.8892 0.239999 46.1425 0.239999C49.3958 0.239999 51.0225 1.92 51.0225 5.28V6.96C52.3558 4.72 54.1425 3.01333 56.3825 1.84C58.6758 0.666665 61.2358 0.079999 64.0625 0.079999C73.2892 0.079999 77.9025 5.44 77.9025 16.16V35.52C77.9025 38.9333 76.2492 40.64 72.9425 40.64C69.5825 40.64 67.9025 38.9333 67.9025 35.52V16.64C67.9025 13.6 67.3158 11.3867 66.1425 10C65.0225 8.61333 63.2625 7.92 60.8625 7.92C57.9292 7.92 55.5825 8.85333 53.8225 10.72C52.1158 12.5333 51.2625 14.96 51.2625 18V35.52C51.2625 38.9333 49.5825 40.64 46.2225 40.64ZM100.939 40.8C98.1127 40.8 95.5794 40.2667 93.3394 39.2C91.1527 38.08 89.4194 36.5867 88.1394 34.72C86.9127 32.8533 86.2994 30.7467 86.2994 28.4C86.2994 25.52 87.046 23.2533 88.5394 21.6C90.0327 19.8933 92.4594 18.6667 95.8194 17.92C99.1794 17.1733 103.686 16.8 109.339 16.8H112.139V15.12C112.139 12.4533 111.553 10.5333 110.379 9.36C109.206 8.18666 107.233 7.6 104.459 7.6C102.913 7.6 101.233 7.78666 99.4194 8.16C97.6594 8.53333 95.7927 9.17333 93.8194 10.08C92.5394 10.6667 91.4727 10.7467 90.6194 10.32C89.766 9.84 89.1794 9.12 88.8594 8.16C88.5927 7.14666 88.646 6.13333 89.0194 5.12C89.446 4.10667 90.2727 3.36 91.4994 2.88C93.9527 1.86667 96.2994 1.14667 98.5394 0.719998C100.833 0.293332 102.913 0.079999 104.779 0.079999C110.486 0.079999 114.726 1.41333 117.499 4.08C120.273 6.69333 121.659 10.7733 121.659 16.32V35.52C121.659 38.9333 120.113 40.64 117.019 40.64C113.873 40.64 112.299 38.9333 112.299 35.52V33.76C111.393 35.9467 109.953 37.68 107.979 38.96C106.006 40.1867 103.659 40.8 100.939 40.8ZM103.019 33.92C105.633 33.92 107.793 33.0133 109.499 31.2C111.259 29.3867 112.139 27.0933 112.139 24.32V22.56H109.419C104.406 22.56 100.913 22.96 98.9394 23.76C97.0194 24.5067 96.0594 25.8933 96.0594 27.92C96.0594 29.68 96.6727 31.12 97.8994 32.24C99.126 33.36 100.833 33.92 103.019 33.92ZM136.769 55.04C133.463 55.04 131.809 53.36 131.809 50V5.28C131.809 1.92 133.436 0.239999 136.689 0.239999C139.996 0.239999 141.649 1.92 141.649 5.28V6.96C142.769 4.88 144.449 3.22666 146.689 2C148.929 0.719999 151.489 0.079999 154.369 0.079999C157.783 0.079999 160.769 0.906665 163.329 2.56C165.943 4.21333 167.969 6.56 169.409 9.6C170.849 12.5867 171.569 16.1867 171.569 20.4C171.569 24.56 170.849 28.1867 169.409 31.28C167.969 34.32 165.969 36.6667 163.409 38.32C160.849 39.9733 157.836 40.8 154.369 40.8C151.596 40.8 149.089 40.2133 146.849 39.04C144.663 37.8133 142.983 36.1867 141.809 34.16V50C141.809 53.36 140.129 55.04 136.769 55.04ZM151.569 33.2C154.556 33.2 156.956 32.1333 158.769 30C160.583 27.8133 161.489 24.6133 161.489 20.4C161.489 16.1333 160.583 12.96 158.769 10.88C156.956 8.74667 154.556 7.68 151.569 7.68C148.583 7.68 146.183 8.74667 144.369 10.88C142.556 12.96 141.649 16.1333 141.649 20.4C141.649 24.6133 142.556 27.8133 144.369 30C146.183 32.1333 148.583 33.2 151.569 33.2Z" fill="white"/>
</svg>
